<svg width="95" height="71" viewBox="0 0 95 71" fill="none" xmlns="http://www.w3.org/2000/svg">
<g clip-path="url(#clip0_1027_5384)">
<mask id="mask0_1027_5384" style="mask-type:luminance" maskUnits="userSpaceOnUse" x="0" y="0" width="95" height="71">
<path d="M95 0H0V71H95V0Z" fill="white"/>
</mask>
<g mask="url(#mask0_1027_5384)">
<path d="M95 0H0V71H95V0Z" fill="#333339"/>
<path d="M48.1408 7.38932C49.2048 8.00532 49.9888 8.87332 50.4928 9.99332C51.0528 11.0573 51.3328 12.2333 51.3328 13.5213C51.3328 14.6413 51.1088 15.7613 50.6608 16.8813C50.2128 18.0013 49.6248 18.9253 48.8968 19.6533C42.5128 19.7653 36.4928 20.0453 30.8368 20.4933C30.5568 21.6693 29.9688 24.2733 29.0728 28.3053C28.9608 28.8093 28.5968 30.5733 27.9808 33.5973C33.9728 33.0933 38.7048 32.4213 42.1768 31.5813C43.2968 32.2533 44.1368 33.1493 44.6968 34.2693C45.3128 35.3333 45.6208 36.5093 45.6208 37.7973C45.6208 38.9733 45.3688 40.0933 44.8648 41.1573C44.4168 42.1653 43.7728 42.9773 42.9328 43.5933C41.8688 43.7053 40.8048 43.7893 39.7408 43.8453C38.7328 43.9013 37.7528 43.9573 36.8008 44.0133L26.3008 44.7693C25.8528 47.6253 25.4048 51.0133 24.9568 54.9333C24.4528 59.1333 24.0048 62.0733 23.6128 63.7533C23.2208 65.3773 22.5768 66.1893 21.6808 66.1893C20.2808 66.1893 18.6848 65.7133 16.8928 64.7613C15.1568 63.7533 13.6448 62.6053 12.3568 61.3173C11.1248 59.9733 10.5088 58.8813 10.5088 58.0413C10.5088 57.2013 10.7888 55.3533 11.3488 52.4973C11.9648 49.6413 12.6368 46.5613 13.3648 43.2573C15.8848 32.3933 17.3688 24.9453 17.8168 20.9133L14.2888 21.1653C13.2248 20.6053 12.3568 19.7933 11.6848 18.7293C11.0688 17.6093 10.7608 16.4053 10.7608 15.1173C10.7608 12.8773 11.6288 10.8893 13.3648 9.15332C21.0368 9.04132 27.7008 8.87332 33.3568 8.64932C39.0688 8.42532 43.9968 8.00532 48.1408 7.38932ZM75.4914 28.3053C75.9394 25.5053 76.1634 23.2653 76.1634 21.5853C76.1634 20.4093 76.0514 19.4853 75.8274 18.8133C75.6594 18.1413 75.4354 17.8053 75.1554 17.8053C74.3154 17.8053 73.3354 18.5053 72.2154 19.9053C71.1514 21.3053 70.2274 22.9853 69.4434 24.9453C68.7154 26.8493 68.3514 28.5573 68.3514 30.0693C68.3514 31.9733 69.2754 33.9053 71.1234 35.8653C73.0274 37.7693 75.7994 40.1213 79.4394 42.9213C82.1834 44.9373 84.2274 46.6173 85.5714 47.9613C86.9154 49.2493 87.6154 50.4253 87.6714 51.4893C87.7274 53.8413 86.4954 56.1653 83.9754 58.4613C81.4554 60.7013 78.2914 62.5493 74.4834 64.0053C70.7314 65.4613 67.2314 66.1893 63.9834 66.1893C61.4634 66.1893 58.8594 65.5733 56.1714 64.3413C53.4834 63.0533 51.2434 61.5693 49.4514 59.8893C47.6594 58.1533 46.7354 56.6413 46.6794 55.3533C46.5674 52.8893 47.3794 50.9013 49.1154 49.3893C50.8514 47.8213 53.1754 47.0373 56.0874 47.0373C57.5434 47.0373 59.0274 47.2333 60.5394 47.6253C61.2114 51.3213 61.7994 53.9813 62.3034 55.6053C65.6074 54.7653 69.1914 53.3093 73.0554 51.2373C60.5674 41.7733 54.3234 34.3813 54.3234 29.0613C54.3234 26.4853 55.2754 23.4053 57.1794 19.8213C59.0834 16.1813 61.6034 13.0733 64.7394 10.4973C67.8754 7.86532 71.1794 6.54932 74.6514 6.54932C77.2274 6.54932 79.7194 7.41732 82.1274 9.15332C84.5354 10.8893 86.4954 13.0173 88.0074 15.5373C89.5194 18.0573 90.2754 20.4093 90.2754 22.5933C90.2754 24.7213 89.4074 26.4293 87.6714 27.7173C85.9914 28.9493 83.8914 29.5653 81.3714 29.5653C79.4114 29.5653 77.4514 29.1453 75.4914 28.3053Z" fill="#333339"/>
<path d="M48.1408 7.38932L48.6419 6.52389L48.3394 6.34881L47.9938 6.40019L48.1408 7.38932ZM50.4928 9.99332L49.5809 10.4037L49.5936 10.4318L49.6079 10.459L50.4928 9.99332ZM48.8968 19.6533L48.9144 20.6531L49.3183 20.6461L49.6039 20.3604L48.8968 19.6533ZM30.8368 20.4933L30.7579 19.4964L30.0325 19.5539L29.864 20.2617L30.8368 20.4933ZM27.9808 33.5973L27.001 33.3977L26.7345 34.7057L28.0646 34.5938L27.9808 33.5973ZM42.1768 31.5813L42.6913 30.7238L42.34 30.513L41.9417 30.6093L42.1768 31.5813ZM44.6968 34.2693L43.8024 34.7165L43.8161 34.7439L43.8314 34.7703L44.6968 34.2693ZM44.8648 41.1573L43.9611 40.7292L43.9559 40.7401L43.951 40.7512L44.8648 41.1573ZM42.9328 43.5933L43.0375 44.5878L43.3063 44.5595L43.5242 44.3997L42.9328 43.5933ZM39.7408 43.8453L39.6883 42.8467L39.6854 42.8468L39.7408 43.8453ZM36.8008 44.0133L36.7421 43.0149L36.729 43.0159L36.8008 44.0133ZM26.3008 44.7693L26.229 43.7719L25.4361 43.829L25.3129 44.6143L26.3008 44.7693ZM24.9568 54.9333L25.9497 55.0524L25.9504 55.0468L24.9568 54.9333ZM23.6128 63.7533L24.5849 63.9879L24.5867 63.9805L23.6128 63.7533ZM16.8928 64.7613L16.3907 65.6261L16.407 65.6356L16.4237 65.6444L16.8928 64.7613ZM12.3568 61.3173L11.6197 61.993L11.6344 62.009L11.6497 62.0244L12.3568 61.3173ZM11.3488 52.4973L10.3713 52.2865L10.3693 52.2956L10.3675 52.3049L11.3488 52.4973ZM13.3648 43.2573L12.3906 43.0313L12.3883 43.0421L13.3648 43.2573ZM17.8168 20.9133L18.8107 21.0237L18.9433 19.8303L17.7456 19.9158L17.8168 20.9133ZM14.2888 21.1653L13.8231 22.0502L14.0755 22.1831L14.3601 22.1628L14.2888 21.1653ZM11.6848 18.7293L10.8086 19.2112L10.8232 19.2377L10.8393 19.2633L11.6848 18.7293ZM13.3648 9.15332L13.3502 8.15343L12.9446 8.15935L12.6577 8.44622L13.3648 9.15332ZM47.6398 8.25475C48.5228 8.76594 49.1629 9.47487 49.5809 10.4037L51.4048 9.58296C50.8147 8.27178 49.8869 7.2447 48.6419 6.52389L47.6398 8.25475ZM49.6079 10.459C50.087 11.3693 50.3328 12.3837 50.3328 13.5213H52.3328C52.3328 12.0829 52.0187 10.7453 51.3777 9.52758L49.6079 10.459ZM50.3328 13.5213C50.3328 14.5046 50.1368 15.4989 49.7324 16.5099L51.5893 17.2527C52.0809 16.0237 52.3328 14.778 52.3328 13.5213H50.3328ZM49.7324 16.5099C49.3261 17.5255 48.807 18.3289 48.1897 18.9462L49.6039 20.3604C50.4427 19.5216 51.0995 18.4771 51.5893 17.2527L49.7324 16.5099ZM48.8793 18.6534C42.4773 18.7658 36.4366 19.0466 30.7579 19.4964L30.9158 21.4902C36.549 21.044 42.5484 20.7648 48.9144 20.6531L48.8793 18.6534ZM29.864 20.2617C29.5819 21.4464 28.9922 24.0583 28.0966 28.0884L30.049 28.5222C30.9454 24.4883 31.5317 21.8921 31.8096 20.7249L29.864 20.2617ZM28.0966 28.0884C27.9822 28.6034 27.6158 30.3791 27.001 33.3977L28.9607 33.7969C29.5778 30.7675 29.9395 29.0152 30.049 28.5222L28.0966 28.0884ZM28.0646 34.5938C34.0782 34.088 38.868 33.4107 42.412 32.5532L41.9417 30.6093C38.5416 31.4319 33.8674 32.0986 27.897 32.6008L28.0646 34.5938ZM41.6623 32.4388C42.6266 33.0174 43.3312 33.7742 43.8024 34.7165L45.5913 33.8221C44.9424 32.5244 43.967 31.4892 42.6913 30.7238L41.6623 32.4388ZM43.8314 34.7703C44.355 35.6747 44.6208 36.6765 44.6208 37.7973H46.6208C46.6208 36.3421 46.2707 34.9919 45.5623 33.7683L43.8314 34.7703ZM44.6208 37.7973C44.6208 38.8251 44.4018 39.7989 43.9611 40.7292L45.7686 41.5854C46.3359 40.3877 46.6208 39.1215 46.6208 37.7973H44.6208ZM43.951 40.7512C43.5695 41.6097 43.0326 42.2801 42.3415 42.7869L43.5242 44.3997C44.5131 43.6745 45.2642 42.7209 45.7786 41.5634L43.951 40.7512ZM42.8281 42.5988C41.7814 42.709 40.7348 42.7916 39.6883 42.8467L39.7934 44.8439C40.8749 44.787 41.9563 44.7016 43.0375 44.5878L42.8281 42.5988ZM39.6854 42.8468C38.6763 42.9029 37.6953 42.9589 36.7421 43.0149L36.8596 45.0116C37.8104 44.9556 38.7893 44.8997 39.7963 44.8438L39.6854 42.8468ZM36.729 43.0159L26.229 43.7719L26.3726 45.7667L36.8726 45.0107L36.729 43.0159ZM25.3129 44.6143C24.8621 47.488 24.4124 50.8905 23.9633 54.8197L25.9504 55.0468C26.3973 51.1361 26.8435 47.7626 27.2887 44.9243L25.3129 44.6143ZM23.964 54.8141C23.4599 59.0149 23.0171 61.9054 22.639 63.5261L24.5867 63.9805C24.9925 62.2411 25.4458 59.2517 25.9497 55.0524L23.964 54.8141ZM22.6407 63.5187C22.4604 64.266 22.2455 64.7153 22.0523 64.9589C21.8866 65.1679 21.7735 65.1893 21.6808 65.1893V67.1893C22.4842 67.1893 23.1411 66.8047 23.6193 66.2017C24.0701 65.6333 24.3733 64.8646 24.5849 63.9879L22.6407 63.5187ZM21.6808 65.1893C20.5014 65.1893 19.07 64.7856 17.362 63.8782L16.4237 65.6444C18.2997 66.641 20.0602 67.1893 21.6808 67.1893V65.1893ZM17.395 63.8965C15.7263 62.9276 14.2849 61.8311 13.0639 60.6102L11.6497 62.0244C13.0048 63.3795 14.5874 64.579 16.3907 65.6261L17.395 63.8965ZM13.094 60.6416C12.5084 60.0028 12.0997 59.4561 11.8418 58.999C11.5798 58.5345 11.5088 58.2248 11.5088 58.0413H9.50882C9.50882 58.6978 9.74583 59.354 10.0999 59.9816C10.458 60.6165 10.9732 61.2878 11.6197 61.993L13.094 60.6416ZM11.5088 58.0413C11.5088 57.3178 11.765 55.5721 12.3301 52.6897L10.3675 52.3049C9.81268 55.1345 9.50882 57.0848 9.50882 58.0413H11.5088ZM12.3263 52.7081C12.942 49.8538 13.6137 46.7752 14.3414 43.4725L12.3883 43.0421C11.66 46.3473 10.9877 49.4288 10.3713 52.2865L12.3263 52.7081ZM14.339 43.4833C16.8576 32.6251 18.3553 25.1225 18.8107 21.0237L16.8229 20.8029C16.3824 24.7681 14.9119 32.1615 12.3906 43.0313L14.339 43.4833ZM17.7456 19.9158L14.2176 20.1678L14.3601 22.1628L17.8881 21.9107L17.7456 19.9158ZM14.7546 20.2804C13.8531 19.8059 13.1132 19.1183 12.5303 18.1953L10.8393 19.2633C11.6004 20.4683 12.5966 21.4047 13.8231 22.0502L14.7546 20.2804ZM12.561 18.2474C12.0269 17.2762 11.7608 16.2381 11.7608 15.1173H9.76082C9.76082 16.5724 10.1108 17.9424 10.8086 19.2112L12.561 18.2474ZM11.7608 15.1173C11.7608 13.1693 12.5037 11.4287 14.0719 9.86043L12.6577 8.44622C10.754 10.3499 9.76082 12.5853 9.76082 15.1173H11.7608ZM13.3794 10.1532C21.0571 10.0411 27.7298 9.87296 33.3964 9.64854L33.3176 7.65009C27.6722 7.87367 21.0166 8.04151 13.3502 8.15343L13.3794 10.1532ZM33.3964 9.64854C39.1325 9.4236 44.0979 9.00128 48.2879 8.37845L47.9938 6.40019C43.8957 7.00936 39.0056 7.42703 33.3176 7.65009L33.3964 9.64854ZM75.4914 28.3053L74.5039 28.1473L74.3807 28.9173L75.0974 29.2244L75.4914 28.3053ZM75.8274 18.8133L74.8572 19.0558L74.8665 19.0931L74.8787 19.1295L75.8274 18.8133ZM72.2154 19.9053L71.4345 19.2806L71.4267 19.2903L71.4192 19.3002L72.2154 19.9053ZM69.4434 24.9453L68.5149 24.5739L68.512 24.581L68.5093 24.5882L69.4434 24.9453ZM71.1234 35.8653L70.3958 36.5513L70.4059 36.562L70.4163 36.5724L71.1234 35.8653ZM79.4394 42.9213L78.8296 43.7139L78.8384 43.7206L78.8473 43.7272L79.4394 42.9213ZM85.5714 47.9613L84.8643 48.6684L84.8718 48.6759L84.8795 48.6833L85.5714 47.9613ZM87.6714 51.4893L88.6711 51.4655L88.6707 51.4511L88.67 51.4367L87.6714 51.4893ZM83.9754 58.4613L84.6398 59.2088L84.6488 59.2005L83.9754 58.4613ZM74.4834 64.0053L74.1262 63.0712L74.1216 63.073L74.4834 64.0053ZM56.1714 64.3413L55.7392 65.2431L55.7469 65.2468L55.7547 65.2504L56.1714 64.3413ZM49.4514 59.8893L48.7556 60.6075L48.7614 60.6132L48.7674 60.6188L49.4514 59.8893ZM46.6794 55.3533L47.6784 55.3099L47.6783 55.3079L46.6794 55.3533ZM49.1154 49.3893L49.7721 50.1434L49.7789 50.1374L49.7856 50.1314L49.1154 49.3893ZM60.5394 47.6253L61.5232 47.4464L61.4089 46.8177L60.7903 46.6573L60.5394 47.6253ZM62.3034 55.6053L61.3483 55.9017L61.6297 56.8084L62.5498 56.5745L62.3034 55.6053ZM73.0554 51.2373L73.5279 52.1186L74.9018 51.3819L73.6594 50.4403L73.0554 51.2373ZM57.1794 19.8213L58.0625 20.2905L58.0655 20.2848L57.1794 19.8213ZM64.7394 10.4973L65.3741 11.2701L65.3822 11.2633L64.7394 10.4973ZM87.6714 27.7173L88.2627 28.5237L88.2672 28.5204L87.6714 27.7173ZM76.4788 28.4633C76.9303 25.6413 77.1634 23.3419 77.1634 21.5853H75.1634C75.1634 23.1887 74.9484 25.3692 74.5039 28.1473L76.4788 28.4633ZM77.1634 21.5853C77.1634 20.3629 77.0491 19.3162 76.776 18.4971L74.8787 19.1295C75.0536 19.6544 75.1634 20.4557 75.1634 21.5853H77.1634ZM76.7975 18.5708C76.7026 18.1913 76.5707 17.8105 76.3654 17.5026C76.1562 17.1887 75.7624 16.8053 75.1554 16.8053V18.8053C75.0117 18.8053 74.8874 18.7585 74.8002 18.7003C74.7233 18.6491 74.6955 18.6032 74.7013 18.612C74.7062 18.6194 74.7279 18.6551 74.7589 18.7347C74.7891 18.8125 74.8227 18.9179 74.8572 19.0558L76.7975 18.5708ZM75.1554 16.8053C74.4542 16.8053 73.798 17.0959 73.2091 17.5166C72.6173 17.9393 72.0269 18.5401 71.4345 19.2806L72.9962 20.53C73.5239 19.8704 73.9834 19.4213 74.3716 19.144C74.7627 18.8646 75.0165 18.8053 75.1554 18.8053V16.8053ZM71.4192 19.3002C70.2912 20.7844 69.3258 22.5465 68.5149 24.5739L70.3718 25.3167C71.1289 23.4241 72.0115 21.8262 73.0115 20.5104L71.4192 19.3002ZM68.5093 24.5882C67.7519 26.5689 67.3514 28.4009 67.3514 30.0693H69.3514C69.3514 28.7137 69.6788 27.1296 70.3774 25.3024L68.5093 24.5882ZM67.3514 30.0693C67.3514 32.3176 68.4455 34.4829 70.3958 36.5513L71.8509 35.1793C70.1052 33.3277 69.3514 31.629 69.3514 30.0693H67.3514ZM70.4163 36.5724C72.3647 38.5209 75.1756 40.9031 78.8296 43.7139L80.0491 42.1287C76.4231 39.3394 73.69 37.0177 71.8305 35.1582L70.4163 36.5724ZM78.8473 43.7272C81.577 45.7327 83.5735 47.3777 84.8643 48.6684L86.2785 47.2542C84.8812 45.8569 82.7897 44.1419 80.0314 42.1154L78.8473 43.7272ZM84.8795 48.6833C86.1657 49.9159 86.6371 50.8644 86.6727 51.5419L88.67 51.4367C88.5936 49.9862 87.665 48.5827 86.2633 47.2393L84.8795 48.6833ZM86.6716 51.5131C86.7181 53.4646 85.7063 55.5314 83.3019 57.7221L84.6488 59.2005C87.2845 56.7992 88.7366 54.218 88.6711 51.4655L86.6716 51.5131ZM83.311 57.7139C80.898 59.8588 77.8443 61.6496 74.1262 63.0712L74.8405 64.9393C78.7384 63.449 82.0128 61.5439 84.6398 59.2088L83.311 57.7139ZM74.1216 63.073C70.4583 64.4946 67.0819 65.1893 63.9834 65.1893V67.1893C67.3808 67.1893 71.0044 66.428 74.8451 64.9376L74.1216 63.073ZM63.9834 65.1893C61.63 65.1893 59.1677 64.6146 56.588 63.4322L55.7547 65.2504C58.551 66.532 61.2967 67.1893 63.9834 67.1893V65.1893ZM56.6035 63.4395C53.9888 62.1866 51.8387 60.7567 50.1353 59.1598L48.7674 60.6188C50.648 62.3819 52.978 63.92 55.7392 65.2431L56.6035 63.4395ZM50.1472 59.1711C48.3885 57.4673 47.7167 56.1906 47.6784 55.3099L45.6803 55.3967C45.754 57.092 46.9302 58.8393 48.7556 60.6075L50.1472 59.1711ZM47.6783 55.3079C47.579 53.1236 48.2844 51.4391 49.7721 50.1434L48.4586 48.6352C46.4743 50.3635 45.5557 52.655 45.6804 55.3987L47.6783 55.3079ZM49.7856 50.1314C51.2958 48.7674 53.3599 48.0373 56.0874 48.0373V46.0373C52.9909 46.0373 50.4069 46.8752 48.4451 48.6472L49.7856 50.1314ZM56.0874 48.0373C57.4528 48.0373 58.8524 48.221 60.2884 48.5933L60.7903 46.6573C59.2023 46.2456 57.6339 46.0373 56.0874 46.0373V48.0373ZM59.5555 47.8042C60.2282 51.5042 60.825 54.2155 61.3483 55.9017L63.2584 55.3089C62.7737 53.7471 62.1945 51.1383 61.5232 47.4464L59.5555 47.8042ZM62.5498 56.5745C65.9511 55.7097 69.6116 54.2186 73.5279 52.1186L72.5828 50.356C68.7711 52.4 65.2636 53.8209 62.057 54.6361L62.5498 56.5745ZM73.6594 50.4403C67.4428 45.7291 62.8247 41.566 59.7703 37.95C56.6899 34.3032 55.3234 31.3568 55.3234 29.0613H53.3234C53.3234 32.0858 55.0788 35.4953 58.2424 39.2406C61.432 43.0166 66.18 47.2815 72.4514 52.0343L73.6594 50.4403ZM55.3234 29.0613C55.3234 26.7167 56.1954 23.8051 58.0625 20.2905L56.2962 19.3521C54.3553 23.0056 53.3234 26.2539 53.3234 29.0613H55.3234ZM58.0655 20.2848C59.908 16.7622 62.3431 13.7599 65.3741 11.2701L64.1046 9.72459C60.8636 12.3868 58.2587 15.6004 56.2933 19.3578L58.0655 20.2848ZM65.3822 11.2633C68.372 8.75405 71.4552 7.54932 74.6514 7.54932V5.54932C70.9035 5.54932 67.3787 6.9766 64.0965 9.73135L65.3822 11.2633ZM74.6514 7.54932C76.9866 7.54932 79.2779 8.33187 81.5426 9.9645L82.7122 8.34215C80.1608 6.50277 77.4682 5.54932 74.6514 5.54932V7.54932ZM81.5426 9.9645C83.8416 11.6219 85.7084 13.6494 87.1499 16.0518L88.8649 15.0228C87.2823 12.3852 85.2291 10.1567 82.7122 8.34215L81.5426 9.9645ZM87.1499 16.0518C88.5998 18.4683 89.2754 20.6428 89.2754 22.5933H91.2754C91.2754 20.1758 90.4389 17.6463 88.8649 15.0228L87.1499 16.0518ZM89.2754 22.5933C89.2754 24.3988 88.562 25.8113 87.0755 26.9142L88.2672 28.5204C90.2527 27.0473 91.2754 25.0437 91.2754 22.5933H89.2754ZM87.08 26.9109C85.605 27.9926 83.7243 28.5653 81.3714 28.5653V30.5653C84.0584 30.5653 86.3778 29.906 88.2627 28.5237L87.08 26.9109ZM81.3714 28.5653C79.5583 28.5653 77.7319 28.1775 75.8853 27.3861L75.0974 29.2244C77.1709 30.113 79.2644 30.5653 81.3714 30.5653V28.5653Z" fill="#FFBB37"/>
<path d="M85 10V13.3908L80.1666 10H85Z" stroke="#333339" stroke-width="20"/>
<path d="M10 61.0002V57.6094L14.8334 61.0002H10Z" stroke="#333339" stroke-width="20"/>
</g>
</g>
<defs>
<clipPath id="clip0_1027_5384">
<rect width="95" height="71" fill="white"/>
</clipPath>
</defs>
</svg>
