<svg width="84" height="68" viewBox="0 0 84 68" fill="none" xmlns="http://www.w3.org/2000/svg">
<path d="M42 68C65.196 68 84 52.7777 84 34C84 15.2223 65.196 0 42 0C18.804 0 0 15.2223 0 34C0 52.7777 18.804 68 42 68Z" fill="white"/>
<path d="M39.557 10.7441C40.3308 11.2228 40.901 11.8974 41.2675 12.7678C41.6748 13.5947 41.8784 14.5086 41.8784 15.5095C41.8784 16.3799 41.7155 17.2503 41.3897 18.1207C41.0639 18.9911 40.6362 19.7092 40.1068 20.275C35.4639 20.362 31.0857 20.5796 26.9722 20.9278C26.7686 21.8417 26.341 23.8654 25.6893 26.9988C25.6079 27.3905 25.3432 28.7614 24.8952 31.1115C29.253 30.7198 32.6944 30.1975 35.2195 29.5447C36.0341 30.067 36.645 30.7633 37.0522 31.6337C37.5002 32.4606 37.7242 33.3745 37.7242 34.3755C37.7242 35.2894 37.541 36.1598 37.1744 36.9867C36.8486 37.77 36.3802 38.4011 35.7693 38.8798C34.9955 38.9668 34.2217 39.0321 33.4479 39.0756C32.7148 39.1191 32.0021 39.1627 31.3097 39.2062L23.6733 39.7937C23.3475 42.0132 23.0217 44.6462 22.6959 47.6926C22.3293 50.9566 22.0035 53.2414 21.7184 54.547C21.4333 55.8091 20.965 56.4401 20.3133 56.4401C19.2952 56.4401 18.1344 56.0702 16.8312 55.3303C15.5686 54.547 14.469 53.6548 13.5322 52.6539C12.6362 51.6094 12.1882 50.7607 12.1882 50.1079C12.1882 49.4551 12.3919 48.019 12.7992 45.7995C13.2472 43.5799 13.7359 41.1863 14.2653 38.6187C16.0981 30.1758 17.1773 24.3876 17.5032 21.2542L14.9373 21.45C14.1635 21.0148 13.5322 20.3838 13.0435 19.5569C12.5955 18.6865 12.3715 17.7508 12.3715 16.7499C12.3715 15.0091 13.0028 13.4641 14.2653 12.115C19.845 12.0279 24.6915 11.8974 28.805 11.7233C32.9592 11.5492 36.5432 11.2228 39.557 10.7441ZM59.4482 26.9988C59.7741 24.8228 59.937 23.082 59.937 21.7764C59.937 20.8625 59.8555 20.1444 59.6926 19.6222C59.5704 19.0999 59.4075 18.8388 59.2039 18.8388C58.593 18.8388 57.8802 19.3828 57.0657 20.4708C56.2919 21.5588 55.6199 22.8644 55.0497 24.3876C54.5202 25.8673 54.2555 27.1947 54.2555 28.3697C54.2555 29.8494 54.9275 31.3508 56.2715 32.874C57.6562 34.3537 59.6722 36.1815 62.3194 38.3575C64.3151 39.9243 65.8016 41.2299 66.7791 42.2743C67.7565 43.2753 68.2656 44.1892 68.3064 45.0161C68.3471 46.8439 67.4511 48.65 65.6183 50.4343C63.7856 52.1751 61.4845 53.6113 58.7151 54.7428C55.9864 55.8743 53.441 56.4401 51.0788 56.4401C49.2461 56.4401 47.3522 55.9614 45.3973 55.0039C43.4424 54.003 41.8133 52.8497 40.5101 51.5441C39.2068 50.195 38.5348 49.0199 38.4941 48.019C38.4126 46.1041 39.0031 44.5591 40.2657 43.3841C41.5282 42.1655 43.2184 41.5563 45.3362 41.5563C46.3951 41.5563 47.4744 41.7086 48.5741 42.0132C49.0628 44.8855 49.4904 46.9527 49.857 48.2148C52.2599 47.562 54.8664 46.4305 57.6766 44.8203C48.5944 37.4654 44.0533 31.7207 44.0533 27.5863C44.0533 25.5844 44.7457 23.1908 46.1304 20.4055C47.5151 17.5767 49.3479 15.1614 51.6286 13.1595C53.9093 11.114 56.3122 10.0913 58.8373 10.0913C60.7108 10.0913 62.5231 10.7659 64.2743 12.115C66.0256 13.4641 67.4511 15.1179 68.5507 17.0763C69.6503 19.0347 70.2002 20.8625 70.2002 22.5598C70.2002 24.2135 69.5689 25.5409 68.3064 26.5419C67.0845 27.4993 65.5573 27.978 63.7245 27.978C62.2991 27.978 60.8736 27.6516 59.4482 26.9988Z" fill="#FFBB37"/>
<path d="M39.557 10.7441L40.5135 8.97859L39.9361 8.62145L39.2763 8.72624L39.557 10.7441ZM41.2675 12.7677L39.5265 13.6049L39.5507 13.6622L39.5781 13.7178L41.2675 12.7677ZM40.1068 20.2749L40.1403 22.3146L40.9113 22.3002L41.4567 21.7174L40.1068 20.2749ZM26.9722 20.9277L26.8215 18.8941L25.4368 19.0113L25.1151 20.4552L26.9722 20.9277ZM24.8951 31.1114L23.0244 30.7042L22.5158 33.3725L25.0551 33.1442L24.8951 31.1114ZM35.2195 29.5447L36.2017 27.7954L35.5309 27.3653L34.7706 27.5619L35.2195 29.5447ZM37.0522 31.6337L35.3447 32.546L35.3708 32.6018L35.4 32.6558L37.0522 31.6337ZM37.1744 36.9866L35.4491 36.1133L35.4392 36.1356L35.4298 36.1581L37.1744 36.9866ZM35.7693 38.8797L35.9691 40.9085L36.4822 40.8508L36.8983 40.5248L35.7693 38.8797ZM33.4479 39.0756L33.3475 37.0384L33.342 37.0387L33.4479 39.0756ZM31.3097 39.2061L31.1976 37.1697L31.1851 37.1704L31.1726 37.1714L31.3097 39.2061ZM23.6733 39.7937L23.5362 37.7589L22.0225 37.8754L21.7873 39.4775L23.6733 39.7937ZM22.6959 47.6926L24.5913 47.9356L24.592 47.9299L24.5926 47.9242L22.6959 47.6926ZM21.7184 54.547L23.5742 55.0256L23.5759 55.0181L23.5776 55.0105L21.7184 54.547ZM16.8311 55.3303L15.8725 57.0945L15.9036 57.1138L15.9355 57.1318L16.8311 55.3303ZM13.5322 52.6538L12.1249 54.0323L12.153 54.065L12.1823 54.0963L13.5322 52.6538ZM12.7991 45.7994L10.9329 45.3693L10.9292 45.3881L10.9257 45.4069L12.7991 45.7994ZM14.2653 38.6186L12.4056 38.1577L12.4032 38.1687L12.401 38.1797L14.2653 38.6186ZM17.5031 21.2542L19.4005 21.4794L19.6537 19.0448L17.3671 19.2193L17.5031 21.2542ZM14.9373 21.45L14.0481 23.2553L14.5301 23.5262L15.0733 23.4848L14.9373 21.45ZM13.0435 19.5569L11.3707 20.54L11.3986 20.5941L11.4294 20.6462L13.0435 19.5569ZM14.2653 12.1149L14.2375 10.0752L13.463 10.0873L12.9154 10.6725L14.2653 12.1149ZM28.805 11.7233L28.7301 9.68483H28.7294L28.805 11.7233ZM38.6004 12.5096C39.0287 12.7745 39.3242 13.1245 39.5265 13.6049L43.0084 11.9306C42.4776 10.6702 41.6329 9.6711 40.5135 8.97859L38.6004 12.5096ZM39.5781 13.7178C39.8309 14.2311 39.9693 14.8154 39.9693 15.5095H43.7875C43.7875 14.2017 43.5186 12.9581 42.9569 11.8177L39.5781 13.7178ZM39.9693 15.5095C39.9693 16.101 39.8597 16.7149 39.6171 17.3631L43.1622 18.8784C43.5712 17.7857 43.7875 16.6588 43.7875 15.5095H39.9693ZM39.6171 17.3631C39.371 18.0204 39.0749 18.4926 38.7569 18.8325L41.4567 21.7174C42.1976 20.9257 42.7567 19.9618 43.1622 18.8784L39.6171 17.3631ZM40.0733 18.2353C35.396 18.3229 30.9784 18.5423 26.8215 18.8941L27.123 22.9614C31.1929 22.6169 35.5317 22.401 40.1403 22.3146L40.0733 18.2353ZM25.1151 20.4552C24.9074 21.3871 24.4765 23.4267 23.8257 26.5562L27.5529 27.4413C28.2054 24.304 28.6298 22.2962 28.8294 21.4003L25.1151 20.4552ZM23.8257 26.5562C23.7395 26.9705 23.4703 28.3652 23.0244 30.7042L26.7658 31.5186C27.2159 29.1575 27.4762 27.8104 27.5529 27.4413L23.8257 26.5562ZM25.0551 33.1442C29.4542 32.7489 33.006 32.2158 35.6684 31.5275L34.7706 27.5619C32.3829 28.1792 29.0517 28.6906 24.7351 29.0786L25.0551 33.1442ZM34.2373 31.294C34.7546 31.6256 35.107 32.038 35.3447 32.546L38.7598 30.7214C38.1829 29.4885 37.3135 28.5083 36.2017 27.7954L34.2373 31.294ZM35.4 32.6558C35.6716 33.157 35.8151 33.7156 35.8151 34.3754H39.6333C39.6333 33.0333 39.3288 31.7641 38.7044 30.6116L35.4 32.6558ZM35.8151 34.3754C35.8151 34.987 35.6947 35.5591 35.4491 36.1133L38.8997 37.86C39.3871 36.7604 39.6333 35.5917 39.6333 34.3754H35.8151ZM35.4298 36.1581C35.2309 36.6365 34.9671 36.9787 34.6404 37.2347L36.8983 40.5248C37.7934 39.8234 38.4663 38.9035 38.9189 37.8151L35.4298 36.1581ZM35.5694 36.851C34.8286 36.9343 34.088 36.9968 33.3475 37.0384L33.5482 41.1128C34.3554 41.0674 35.1624 40.9993 35.9691 40.9085L35.5694 36.851ZM33.342 37.0387C32.6069 37.0824 31.8921 37.126 31.1976 37.1697L31.4218 41.2426C32.112 41.1992 32.8226 41.1558 33.5538 41.1125L33.342 37.0387ZM31.1726 37.1714L23.5362 37.7589L23.8104 41.8284L31.4468 41.2409L31.1726 37.1714ZM21.7873 39.4775C21.4562 41.7332 21.1269 44.3956 20.7991 47.4609L24.5926 47.9242C24.9164 44.8967 25.2388 42.2932 25.5593 40.1098L21.7873 39.4775ZM20.8003 47.4495C20.4337 50.715 20.1179 52.899 19.8593 54.0834L23.5776 55.0105C23.8891 53.5837 24.225 51.1981 24.5913 47.9356L20.8003 47.4495ZM19.8626 54.0683C19.81 54.3015 19.7573 54.4664 19.7134 54.5768C19.6686 54.6893 19.6437 54.7178 19.6576 54.6991C19.6743 54.6766 19.7424 54.5932 19.8772 54.5172C20.02 54.4368 20.1754 54.4001 20.3133 54.4001V58.4801C21.3175 58.4801 22.1167 57.9518 22.6491 57.2344C23.1292 56.5876 23.4019 55.7886 23.5742 55.0256L19.8626 54.0683ZM20.3133 54.4001C19.7162 54.4001 18.8697 54.1776 17.7268 53.5288L15.9355 57.1318C17.399 57.9627 18.874 58.4801 20.3133 58.4801V54.4001ZM17.7898 53.5661C16.6557 52.8625 15.6908 52.0754 14.8822 51.2113L12.1823 54.0963C13.2471 55.2342 14.4814 56.2314 15.8725 57.0945L17.7898 53.5661ZM14.9395 51.2753C14.5497 50.8209 14.3153 50.4747 14.187 50.2317C14.0509 49.9737 14.0973 49.9518 14.0973 50.1079H10.2791C10.2791 50.9168 10.5496 51.6456 10.8614 52.2363C11.1811 52.8419 11.6188 53.4423 12.1249 54.0323L14.9395 51.2753ZM14.0973 50.1079C14.0973 49.6928 14.2554 48.4653 14.6725 46.1919L10.9257 45.4069C10.5283 47.5725 10.2791 49.2174 10.2791 50.1079H14.0973ZM14.6653 46.2295C15.1126 44.0134 15.6007 41.6228 16.1297 39.0576L12.401 38.1797C11.8709 40.7498 11.3816 43.1464 10.9329 45.3693L14.6653 46.2295ZM16.125 39.0796C17.9552 30.6486 19.0606 24.749 19.4005 21.4794L15.6057 21.0289C15.2941 24.0262 14.2409 29.7029 12.4056 38.1577L16.125 39.0796ZM17.3671 19.2193L14.8013 19.4152L15.0733 23.4848L17.6391 23.289L17.3671 19.2193ZM15.8265 19.6447C15.3629 19.3841 14.9763 19.0067 14.6576 18.4675L11.4294 20.6462C12.0882 21.7608 12.9641 22.6455 14.0481 23.2553L15.8265 19.6447ZM14.7163 18.5737C14.4245 18.0069 14.2806 17.4098 14.2806 16.7498H10.4624C10.4624 18.0918 10.7665 19.366 11.3707 20.54L14.7163 18.5737ZM14.2806 16.7498C14.2806 15.6046 14.6729 14.5644 15.6152 13.5574L12.9154 10.6725C11.3326 12.3638 10.4624 14.4134 10.4624 16.7498H14.2806ZM14.2932 14.1547C19.8835 14.0675 24.7467 13.9366 28.8805 13.7616L28.7294 9.68483C24.6363 9.8581 19.8063 9.98832 14.2375 10.0752L14.2932 14.1547ZM28.8797 13.7617C33.0799 13.5857 36.7362 13.2546 39.8377 12.7619L39.2763 8.72624C36.3501 9.19102 32.8383 9.51266 28.7301 9.68483L28.8797 13.7617ZM59.4482 26.9988L57.5631 26.6765L57.3279 28.2472L58.6962 28.8738L59.4482 26.9988ZM59.6926 19.6222L57.8405 20.1169L57.8583 20.1929L57.8815 20.2673L59.6926 19.6222ZM57.0657 20.4708L55.5749 19.1964L55.5601 19.2162L55.5457 19.2364L57.0657 20.4708ZM55.0497 24.3876L53.2772 23.6299L53.2717 23.6444L53.2665 23.659L55.0497 24.3876ZM56.2715 32.874L54.8825 34.2734L54.9017 34.2953L54.9216 34.3165L56.2715 32.874ZM62.3194 38.3575L61.1555 39.9745L61.1721 39.9881L61.1893 40.0015L62.3194 38.3575ZM66.7791 42.2743L65.4293 43.7168L65.4433 43.7322L65.458 43.7472L66.7791 42.2743ZM68.3063 45.0161L70.2148 44.9675L70.2142 44.9381L70.2129 44.9088L68.3063 45.0161ZM65.6183 50.4343L66.8866 51.959L66.8955 51.9507L66.9044 51.9423L65.6183 50.4343ZM58.7151 54.7428L58.0333 52.8373L58.0289 52.8391L58.0245 52.841L58.7151 54.7428ZM45.3973 55.0039L44.5724 56.8436L44.5871 56.8511L44.6019 56.8584L45.3973 55.0039ZM40.51 51.5441L39.1817 53.0093L39.193 53.0209L39.2044 53.0323L40.51 51.5441ZM38.494 48.0189L40.4014 47.9303L40.4012 47.9263L38.494 48.0189ZM40.2657 43.3841L41.5196 44.9224L41.5326 44.9103L41.5453 44.898L40.2657 43.3841ZM48.574 42.0132L50.4523 41.6482L50.2341 40.3656L49.0532 40.0385L48.574 42.0132ZM49.857 48.2148L48.0336 48.8194L48.5709 50.6691L50.3274 50.1919L49.857 48.2148ZM57.6766 44.8202L58.5788 46.6181L61.2013 45.1152L58.8297 43.1944L57.6766 44.8202ZM46.1304 20.4055L47.8164 21.3626L47.8193 21.3568L47.8221 21.351L46.1304 20.4055ZM51.6286 13.1594L52.8404 14.7358L52.8482 14.7289L52.8559 14.722L51.6286 13.1594ZM68.3063 26.5418L69.4352 28.1869L69.4397 28.1836L69.4442 28.1802L68.3063 26.5418ZM61.3331 27.3211C61.6659 25.1003 61.846 23.2383 61.846 21.7764H58.0279C58.0279 22.9257 57.8823 24.5453 57.5631 26.6765L61.3331 27.3211ZM61.846 21.7764C61.846 20.7678 61.7601 19.7994 61.5036 18.977L57.8815 20.2673C57.9507 20.4894 58.0279 20.9571 58.0279 21.7764H61.846ZM61.545 19.1274C61.4629 18.7776 61.3267 18.3191 61.0671 17.903C60.8004 17.4749 60.1974 16.7988 59.2039 16.7988V20.8788C58.4141 20.8788 57.9945 20.3332 57.8903 20.1662C57.7937 20.0113 57.8002 19.9445 57.8405 20.1169L61.545 19.1274ZM59.2039 16.7988C58.3617 16.7988 57.6466 17.1707 57.1015 17.5868C56.5507 18.0071 56.044 18.5698 55.5749 19.1964L58.5564 21.7452C58.9019 21.2837 59.1589 21.0304 59.3208 20.9068C59.4884 20.7788 59.4352 20.8788 59.2039 20.8788V16.7988ZM55.5457 19.2364C54.6497 20.4962 53.8988 21.9693 53.2772 23.6299L56.8223 25.1452C57.341 23.7595 57.934 22.6214 58.5856 21.7052L55.5457 19.2364ZM53.2665 23.659C52.681 25.2954 52.3464 26.8755 52.3464 28.3697H56.1646C56.1646 27.5138 56.3595 26.4391 56.8329 25.1161L53.2665 23.659ZM52.3464 28.3697C52.3464 30.5517 53.3433 32.529 54.8825 34.2734L57.6605 31.4745C56.5117 30.1726 56.1646 29.147 56.1646 28.3697H52.3464ZM54.9216 34.3165C56.3913 35.8869 58.4815 37.7764 61.1555 39.9745L63.4833 36.7405C60.8628 34.5866 58.9213 32.8204 57.6214 31.4315L54.9216 34.3165ZM61.1893 40.0015C63.1575 41.5468 64.5537 42.781 65.4293 43.7168L68.1288 40.8318C67.0502 39.6786 65.4726 38.3016 63.4496 36.7135L61.1893 40.0015ZM65.458 43.7472C66.3253 44.6352 66.3979 45.085 66.3998 45.1233L70.2129 44.9088C70.1333 43.2934 69.1877 41.9153 68.1002 40.8014L65.458 43.7472ZM66.3979 45.0646C66.4202 46.0755 65.9448 47.3569 64.3329 48.9263L66.9044 51.9423C68.9573 49.9431 70.274 47.6123 70.2148 44.9675L66.3979 45.0646ZM64.3501 48.9096C62.7216 50.4564 60.6312 51.776 58.0333 52.8373L59.3969 56.6483C62.3379 55.4466 64.8496 53.8938 66.8866 51.959L64.3501 48.9096ZM58.0245 52.841C55.4652 53.9022 53.1557 54.4001 51.0788 54.4001V58.4801C53.7262 58.4801 56.5077 57.8464 59.4058 56.6446L58.0245 52.841ZM51.0788 54.4001C49.5642 54.4001 47.941 54.0056 46.1928 53.1494L44.6019 56.8584C46.7635 57.9171 48.928 58.4801 51.0788 58.4801V54.4001ZM46.2223 53.1642C44.4073 52.2349 42.9499 51.192 41.8158 50.0558L39.2044 53.0323C40.6767 54.5073 42.4776 55.771 44.5724 56.8436L46.2223 53.1642ZM41.8384 50.0789C40.5988 48.7956 40.4083 48.1006 40.4014 47.9303L36.5868 48.1076C36.6613 49.9393 37.8149 51.5943 39.1817 53.0093L41.8384 50.0789ZM40.4012 47.9263C40.344 46.582 40.7311 45.6563 41.5196 44.9224L39.0119 41.8458C37.2753 43.4619 36.4812 45.6261 36.5869 48.1116L40.4012 47.9263ZM41.5453 44.898C42.3768 44.0955 43.5706 43.5962 45.3362 43.5962V39.5162C42.8662 39.5162 40.6797 40.2355 38.9861 41.8702L41.5453 44.898ZM45.3362 43.5962C46.2222 43.5962 47.1404 43.7235 48.0949 43.9879L49.0532 40.0385C47.8084 39.6936 46.5681 39.5162 45.3362 39.5162V43.5962ZM46.6958 42.3781C47.1859 45.2587 47.6303 47.4305 48.0336 48.8194L51.6803 47.6101C51.3506 46.4749 50.9397 44.5123 50.4523 41.6482L46.6958 42.3781ZM50.3274 50.1919C52.9161 49.4886 55.6687 48.2855 58.5788 46.6181L56.7744 43.0224C54.0641 44.5754 51.6036 45.6353 49.3866 46.2377L50.3274 50.1919ZM58.8297 43.1944C54.3409 39.5593 51.0591 36.3883 48.9176 33.6792C46.7264 30.9074 45.9624 28.9099 45.9624 27.5863H42.1442C42.1442 30.3972 43.6508 33.3392 46.0007 36.312C48.4003 39.3475 51.9301 42.7263 56.5235 46.4461L58.8297 43.1944ZM45.9624 27.5863C45.9624 26.0565 46.5021 24.0061 47.8164 21.3626L44.4445 19.4484C42.9893 22.3755 42.1442 25.1123 42.1442 27.5863H45.9624ZM47.8221 21.351C49.0896 18.7617 50.7601 16.5618 52.8404 14.7358L50.4168 11.5831C47.9357 13.7609 45.9408 16.3917 44.4388 19.46L47.8221 21.351ZM52.8559 14.722C54.8574 12.927 56.8389 12.1313 58.8373 12.1313V8.05127C55.7856 8.05127 52.9613 9.30097 50.4013 11.5969L52.8559 14.722ZM58.8373 12.1313C60.2511 12.1313 61.6805 12.6315 63.1582 13.7697L65.3912 10.4602C63.3656 8.90011 61.1708 8.05127 58.8373 8.05127V12.1313ZM63.1582 13.7697C64.7013 14.9586 65.9486 16.4072 66.914 18.1258L70.1881 16.0266C68.9535 13.8284 67.3499 11.9695 65.3912 10.4602L63.1582 13.7697ZM66.914 18.1258C67.8946 19.8731 68.2911 21.3388 68.2911 22.5597H72.1093C72.1093 20.3861 71.4061 18.1961 70.1881 16.0266L66.914 18.1258ZM68.2911 22.5597C68.2911 23.5557 67.9551 24.2801 67.1692 24.9035L69.4442 28.1802C71.1827 26.8016 72.1093 24.8713 72.1093 22.5597H68.2911ZM67.1774 24.8968C66.347 25.5476 65.2384 25.938 63.7245 25.938V30.018C65.8761 30.018 67.8221 29.4509 69.4352 28.1869L67.1774 24.8968ZM63.7245 25.938C62.5797 25.938 61.4094 25.6773 60.2003 25.1238L58.6962 28.8738C60.3382 29.6258 62.0184 30.018 63.7245 30.018V25.938Z" fill="black"/>
<path d="M29.8444 59.0162L9.85864 45.4404L4.77565 50.3443L24.7614 63.92L29.8444 59.0162Z" fill="white"/>
<path d="M78.7798 19.3964L57.1179 4.68213L48.6363 12.8648L70.2982 27.5791L78.7798 19.3964Z" fill="white"/>
</svg>
