<svg width="100" height="100" viewBox="0 0 100 100" fill="none" xmlns="http://www.w3.org/2000/svg">
<g clip-path="url(#clip0_267_743)">
<path d="M51.1111 91.7431C78.1117 91.7431 100 71.2057 100 45.8716C100 20.5374 78.1117 0 51.1111 0C24.1105 0 2.22223 20.5374 2.22223 45.8716C2.22223 71.2057 24.1105 91.7431 51.1111 91.7431Z" fill="#333339"/>
<path d="M49.4314 14.4955C50.3322 15.1414 50.9959 16.0514 51.4225 17.2258C51.8966 18.3414 52.1336 19.5744 52.1336 20.9248C52.1336 22.0991 51.944 23.2735 51.5647 24.4478C51.1855 25.6221 50.6877 26.5909 50.0714 27.3542C44.667 27.4716 39.5707 27.7652 34.7825 28.2349C34.5455 29.468 34.0477 32.1982 33.2892 36.4258C33.1944 36.9542 32.8862 38.8037 32.3648 41.9744C37.4373 41.4459 41.4433 40.7414 44.3825 39.8606C45.3307 40.5652 46.0418 41.5047 46.5159 42.679C47.0373 43.7946 47.2981 45.0276 47.2981 46.378C47.2981 47.6111 47.0847 48.7854 46.6581 49.901C46.2788 50.9579 45.7336 51.8092 45.0225 52.4551C44.1218 52.5725 43.221 52.6606 42.3203 52.7193C41.467 52.778 40.6373 52.8368 39.8314 52.8955L30.9425 53.6881C30.5633 56.6826 30.184 60.2349 29.8048 64.345C29.3781 68.7487 28.9988 71.8313 28.667 73.5927C28.3351 75.2955 27.7899 76.1469 27.0314 76.1469C25.8462 76.1469 24.4951 75.6478 22.9781 74.6496C21.5085 73.5927 20.2285 72.3891 19.1381 71.0386C18.0951 69.6294 17.5736 68.4845 17.5736 67.6037C17.5736 66.723 17.8107 64.7854 18.2848 61.7909C18.8062 58.7964 19.3751 55.567 19.9914 52.1028C22.1247 40.712 23.381 32.9028 23.7603 28.6753L20.7736 28.9395C19.8729 28.3524 19.1381 27.501 18.5692 26.3854C18.0477 25.2111 17.787 23.9487 17.787 22.5982C17.787 20.2496 18.5218 18.1652 19.9914 16.345C26.4862 16.2276 32.1277 16.0514 36.9159 15.8166C41.7514 15.5817 45.9233 15.1414 49.4314 14.4955ZM72.5853 36.4258C72.9645 33.49 73.1542 31.1413 73.1542 29.3799C73.1542 28.1469 73.0593 27.178 72.8697 26.4735C72.7275 25.7689 72.5379 25.4166 72.3008 25.4166C71.5897 25.4166 70.7601 26.1505 69.8119 27.6184C68.9112 29.0863 68.129 30.8478 67.4653 32.9028C66.849 34.8991 66.5408 36.69 66.5408 38.2753C66.5408 40.2716 67.323 42.2973 68.8875 44.3524C70.4993 46.3487 72.846 48.8147 75.9274 51.7505C78.2504 53.8643 79.9807 55.6258 81.1185 57.0349C82.2563 58.3854 82.8489 59.6184 82.8963 60.734C82.9437 63.2001 81.9007 65.6368 79.7674 68.0441C77.6341 70.3927 74.9556 72.3303 71.7319 73.8569C68.5556 75.3836 65.5927 76.1469 62.843 76.1469C60.7097 76.1469 58.5053 75.501 56.2297 74.2092C53.9542 72.8588 52.0579 71.3028 50.5408 69.5414C49.0238 67.7212 48.2416 66.1358 48.1942 64.7854C48.0993 62.2019 48.7867 60.1175 50.2564 58.5322C51.726 56.8881 53.6934 56.0661 56.1586 56.0661C57.3912 56.0661 58.6475 56.2716 59.9275 56.6826C60.4964 60.5579 60.9942 63.3469 61.4208 65.0496C64.2179 64.1689 67.2519 62.6423 70.523 60.4698C59.9512 50.5469 54.6653 42.7964 54.6653 37.2184C54.6653 34.5175 55.4712 31.2881 57.083 27.5303C58.6949 23.7138 60.8282 20.4551 63.483 17.7542C66.1379 14.9946 68.9349 13.6147 71.8742 13.6147C74.0549 13.6147 76.1644 14.5248 78.203 16.345C80.2415 18.1652 81.9007 20.3964 83.1807 23.0386C84.4607 25.6808 85.1008 28.1469 85.1008 30.4368C85.1008 32.668 84.3659 34.4588 82.8963 35.8092C81.4741 37.101 79.6963 37.7469 77.563 37.7469C75.9037 37.7469 74.2445 37.3065 72.5853 36.4258Z" fill="#333339"/>
<path d="M49.4314 14.4954L50.1737 12.9074L49.7256 12.5862L49.2136 12.6804L49.4314 14.4954ZM51.4225 17.2257L50.0715 17.9786L50.0902 18.0302L50.1115 18.0802L51.4225 17.2257ZM50.0714 27.3541L50.0974 29.1887L50.6958 29.1757L51.119 28.6515L50.0714 27.3541ZM34.7825 28.2348L34.6656 26.4057L33.591 26.5111L33.3413 27.8099L34.7825 28.2348ZM32.3648 41.9743L30.9131 41.608L30.5183 44.0079L32.4889 43.8027L32.3648 41.9743ZM44.3825 39.8605L45.1448 38.2871L44.6242 37.9003L44.0342 38.0771L44.3825 39.8605ZM46.5159 42.6789L45.1908 43.4994L45.2111 43.5496L45.2337 43.5982L46.5159 42.6789ZM46.6581 49.9009L45.3192 49.1154L45.3116 49.1355L45.3043 49.1557L46.6581 49.9009ZM45.0225 52.455L45.1776 54.2798L45.5758 54.2279L45.8986 53.9346L45.0225 52.455ZM42.3203 52.7192L42.2425 50.8869L42.2381 50.8872L42.3203 52.7192ZM39.8314 52.8954L39.7444 51.0637L39.7347 51.0644L39.725 51.0653L39.8314 52.8954ZM30.9425 53.688L30.8361 51.8579L29.6614 51.9626L29.4789 53.4037L30.9425 53.688ZM29.8048 64.3449L31.2757 64.5635L31.2766 64.5533L29.8048 64.3449ZM28.667 73.5926L30.1071 74.0232L30.1084 74.0164L30.1097 74.0096L28.667 73.5926ZM22.9781 74.6495L22.2342 76.2363L22.2583 76.2536L22.2831 76.2699L22.9781 74.6495ZM19.1381 71.0385L18.046 72.2783L18.0677 72.3078L18.0905 72.3359L19.1381 71.0385ZM18.2848 61.7908L16.8365 61.4039L16.8336 61.4208L16.8309 61.4378L18.2848 61.7908ZM19.9914 52.1027L18.5482 51.6881L18.5464 51.6979L18.5446 51.7079L19.9914 52.1027ZM23.7603 28.6752L25.2327 28.8779L25.4292 26.688L23.6548 26.845L23.7603 28.6752ZM20.7736 28.9394L20.0836 30.5631L20.4576 30.8069L20.8792 30.7696L20.7736 28.9394ZM18.5692 26.3853L17.2711 27.2695L17.2927 27.3181L17.3166 27.3651L18.5692 26.3853ZM19.9914 16.3449L19.9698 14.5102L19.3688 14.5212L18.9439 15.0475L19.9914 16.3449ZM48.6891 16.0833C49.3216 16.5368 49.7723 17.1551 50.0715 17.9786L52.7735 16.4727C52.2194 14.9476 51.3426 13.7457 50.1737 12.9074L48.6891 16.0833ZM50.1115 18.0802C50.4657 18.9137 50.6522 19.8502 50.6522 20.9247H53.6151C53.6151 19.2983 53.3275 17.7688 52.7335 16.3711L50.1115 18.0802ZM50.6522 20.9247C50.6522 21.8481 50.5039 22.7918 50.1892 23.7662L52.9402 25.1291C53.3841 23.7549 53.6151 22.35 53.6151 20.9247H50.6522ZM50.1892 23.7662C49.8719 24.749 49.476 25.4966 49.0239 26.0567L51.119 28.6515C51.8993 27.685 52.4991 26.495 52.9402 25.1291L50.1892 23.7662ZM50.0454 25.5195C44.6143 25.6375 39.4874 25.9326 34.6656 26.4057L34.8995 30.064C39.6539 29.5976 44.7196 29.3056 50.0974 29.1887L50.0454 25.5195ZM33.3413 27.8099C33.1012 29.059 32.6008 31.8036 31.843 36.0276L34.7354 36.8237C35.4945 32.5926 35.9898 29.8768 36.2237 28.6598L33.3413 27.8099ZM31.843 36.0276C31.7445 36.5763 31.4329 38.4473 30.9131 41.608L33.8164 42.3405C34.3395 39.16 34.6442 37.3318 34.7354 36.8237L31.843 36.0276ZM32.4889 43.8027C37.5935 43.2709 41.6851 42.5566 44.7309 41.6439L44.0342 38.0771C41.2015 38.9259 37.2812 39.6208 32.2405 40.1458L32.4889 43.8027ZM43.6203 41.4339C44.3378 41.9671 44.8483 42.6511 45.1908 43.4994L47.8409 41.8583C47.2353 40.358 46.3236 39.1631 45.1448 38.2871L43.6203 41.4339ZM45.2337 43.5982C45.6183 44.4209 45.8166 45.3343 45.8166 46.3779H48.7796C48.7796 44.7207 48.4564 43.168 47.7979 41.7595L45.2337 43.5982ZM45.8166 46.3779C45.8166 47.339 45.6521 48.245 45.3192 49.1154L47.997 50.6864C48.5174 49.3256 48.7796 47.883 48.7796 46.3779H45.8166ZM45.3043 49.1557C45.0234 49.9382 44.637 50.5298 44.1465 50.9754L45.8986 53.9346C46.8302 53.0885 47.5342 51.9773 48.0119 50.6461L45.3043 49.1557ZM44.8674 50.6302C43.9922 50.7444 43.1173 50.8299 42.2425 50.8869L42.3982 54.5515C43.3248 54.4912 44.2513 54.4005 45.1776 54.2798L44.8674 50.6302ZM42.2381 50.8872C41.3833 50.946 40.552 51.0048 39.7444 51.0637L39.9184 54.727C40.7226 54.6685 41.5507 54.6099 42.4025 54.5513L42.2381 50.8872ZM39.725 51.0653L30.8361 51.8579L31.0489 55.5181L39.9378 54.7255L39.725 51.0653ZM29.4789 53.4037C29.0956 56.4306 28.7136 60.0095 28.3328 64.1366L31.2766 64.5533C31.6543 60.4601 32.031 56.9345 32.4061 53.9724L29.4789 53.4037ZM28.3338 64.1263C27.907 68.5313 27.5356 71.5232 27.2242 73.1757L30.1097 74.0096C30.4621 72.1391 30.8492 68.9658 31.2757 64.5635L28.3338 64.1263ZM27.2268 73.1621C27.084 73.8948 26.9302 74.2403 26.8485 74.368C26.816 74.4187 26.8191 74.3969 26.8693 74.3641C26.9257 74.3272 26.9876 74.3119 27.0314 74.3119V77.9816C27.9371 77.9816 28.6659 77.4356 29.1699 76.6484C29.6333 75.9247 29.918 74.9932 30.1071 74.0232L27.2268 73.1621ZM27.0314 74.3119C26.173 74.3119 25.0657 73.9454 23.6731 73.0291L22.2831 76.2699C23.9245 77.35 25.5194 77.9816 27.0314 77.9816V74.3119ZM23.7219 73.0627C22.3521 72.0776 21.1766 70.9684 20.1856 69.7411L18.0905 72.3359C19.2802 73.8095 20.6648 75.1077 22.2342 76.2363L23.7219 73.0627ZM20.2302 69.7987C19.7538 69.155 19.4416 68.6308 19.2551 68.2214C19.1633 68.0199 19.1111 67.8658 19.0829 67.7564C19.0548 67.6473 19.0551 67.6002 19.0551 67.6036H16.0922C16.0922 68.478 16.3455 69.3023 16.6744 70.0244C17.0094 70.76 17.4793 71.5128 18.046 72.2783L20.2302 69.7987ZM19.0551 67.6036C19.0551 66.9368 19.2568 65.1868 19.7385 62.1438L16.8309 61.4378C16.3645 64.3838 16.0922 66.5091 16.0922 67.6036H19.0551ZM19.7329 62.1777C20.2539 59.1862 20.8223 55.9595 21.4382 52.4976L18.5446 51.7079C17.9279 55.1744 17.3585 58.4064 16.8365 61.4039L19.7329 62.1777ZM21.4345 52.5173C23.5659 41.1372 24.8425 33.2278 25.2327 28.8779L22.2879 28.4725C21.9196 32.5777 20.6836 40.2866 18.5482 51.6881L21.4345 52.5173ZM23.6548 26.845L20.6681 27.1092L20.8792 30.7696L23.8659 30.5054L23.6548 26.845ZM21.4636 27.3157C20.8036 26.8855 20.2587 26.2623 19.8218 25.4055L17.3166 27.3651C18.0175 28.7395 18.9421 29.8191 20.0836 30.5631L21.4636 27.3157ZM19.8673 25.5011C19.4671 24.5998 19.2685 23.6419 19.2685 22.5981H16.3055C16.3055 24.2553 16.6283 25.8222 17.2711 27.2695L19.8673 25.5011ZM19.2685 22.5981C19.2685 20.7852 19.8179 19.1547 21.039 17.6424L18.9439 15.0475C17.2257 17.1755 16.3055 19.7138 16.3055 22.5981H19.2685ZM20.0131 18.1796C26.5162 18.062 32.1705 17.8856 36.9745 17.6499L36.8578 13.983C32.0854 14.217 26.4562 14.393 19.9698 14.5102L20.0131 18.1796ZM36.9745 17.6499C41.8457 17.4133 46.073 16.9687 49.6492 16.3103L49.2136 12.6804C45.7735 13.3138 41.6576 13.7499 36.8578 13.983L36.9745 17.6499ZM72.5853 36.4257L71.1224 36.1357L70.9399 37.5486L72.0017 38.1122L72.5853 36.4257ZM72.8697 26.4734L71.4325 26.9184L71.4463 26.9868L71.4643 27.0536L72.8697 26.4734ZM69.8119 27.6183L68.6551 26.4721L68.6436 26.4899L68.6325 26.508L69.8119 27.6183ZM67.4653 32.9027L66.0898 32.2213L66.0856 32.2343L66.0815 32.2474L67.4653 32.9027ZM68.8875 44.3523L67.8096 45.611L67.8245 45.6306L67.8399 45.6497L68.8875 44.3523ZM75.9274 51.7504L75.0245 53.2047L75.0371 53.2171L75.0504 53.2291L75.9274 51.7504ZM81.1185 57.0348L80.0711 58.3323L80.0822 58.3461L80.0933 58.3596L81.1185 57.0348ZM82.8963 60.7339L84.3778 60.6902L84.3771 60.6638L84.3756 60.6375L82.8963 60.7339ZM79.7674 68.044L80.7519 69.4154L80.7585 69.408L80.7652 69.4003L79.7674 68.044ZM71.7319 73.8568L71.2028 72.143L71.196 72.1463L71.7319 73.8568ZM56.2297 74.2091L55.5896 75.8638L55.601 75.8706L55.6125 75.8771L56.2297 74.2091ZM50.5408 69.5413L49.51 70.8591L49.5188 70.8696L49.5276 70.8799L50.5408 69.5413ZM48.1942 64.7853L49.6742 64.7056L49.6742 64.702L48.1942 64.7853ZM50.2564 58.5321L51.2294 59.9157L51.2395 59.9048L51.2494 59.8937L50.2564 58.5321ZM59.9275 56.6825L61.3851 56.3543L61.2157 55.2007L60.2993 54.9064L59.9275 56.6825ZM61.4208 65.0495L60.0059 65.5934L60.4228 67.257L61.7859 66.8278L61.4208 65.0495ZM70.5231 60.4697L71.2232 62.0868L73.2585 60.735L71.4179 59.0073L70.5231 60.4697ZM57.0831 27.5302L58.3914 28.3911L58.3958 28.3807L57.0831 27.5302ZM63.4831 17.7541L64.4234 19.1719L64.4295 19.1657L64.4355 19.1595L63.4831 17.7541ZM82.8963 35.8091L83.7726 37.2888L83.7793 37.2827L82.8963 35.8091ZM74.0482 36.7156C74.4326 33.7395 74.6356 31.2819 74.6356 29.3798H71.6727C71.6727 31.0006 71.4965 33.2402 71.1224 36.1357L74.0482 36.7156ZM74.6356 29.3798C74.6356 28.0616 74.5378 26.8677 74.2748 25.8931L71.4643 27.0536C71.5813 27.4882 71.6727 28.2319 71.6727 29.3798H74.6356ZM74.3067 26.0283C74.22 25.5963 74.0867 25.0958 73.8535 24.6629C73.6146 24.2191 73.1113 23.5816 72.3008 23.5816V27.2513C72.0436 27.2513 71.8172 27.149 71.6479 27.0092C71.4941 26.8822 71.415 26.7485 71.3882 26.6985C71.3448 26.6179 71.3775 26.6458 71.4325 26.9184L74.3067 26.0283ZM72.3008 23.5816C71.5288 23.5816 70.8455 23.9773 70.2842 24.4738C69.7185 24.9743 69.1771 25.6639 68.6551 26.4721L70.9688 28.7646C71.3949 28.1048 71.7425 27.6935 72.0064 27.4601C72.2748 27.2226 72.3618 27.2513 72.3008 27.2513V23.5816ZM68.6325 26.508C67.6369 28.1305 66.7934 30.0426 66.0898 32.2213L68.8408 33.5842C69.4646 31.6527 70.1856 30.0419 70.9915 28.7286L68.6325 26.508ZM66.0815 32.2474C65.4217 34.3846 65.0593 36.4028 65.0593 38.2752H68.0223C68.0223 36.9769 68.2763 35.4135 68.8491 33.558L66.0815 32.2474ZM65.0593 38.2752C65.0593 40.9033 66.0937 43.357 67.8096 45.611L69.9654 43.0935C68.5525 41.2374 68.0223 39.6398 68.0223 38.2752H65.0593ZM67.8399 45.6497C69.5177 47.7277 71.922 50.2492 75.0245 53.2047L76.8311 50.2961C73.7701 47.3801 71.481 44.9695 69.935 43.0548L67.8399 45.6497ZM75.0504 53.2291C77.3519 55.3236 79.0119 57.0209 80.0711 58.3323L82.1659 55.7374C80.9496 54.2304 79.1489 52.4047 76.8045 50.2717L75.0504 53.2291ZM80.0933 58.3596C81.1459 59.6085 81.4 60.4241 81.417 60.8303L84.3756 60.6375C84.2985 58.8125 83.3667 57.1621 82.1437 55.7101L80.0933 58.3596ZM81.4156 60.7776C81.4489 62.5089 80.7319 64.4736 78.7696 66.6877L80.7652 69.4003C83.0696 66.7997 84.4393 63.8911 84.3778 60.6902L81.4156 60.7776ZM78.783 66.6726C76.8082 68.8468 74.2933 70.6794 71.2028 72.143L72.2611 75.5707C75.6178 73.9811 78.46 71.9385 80.7519 69.4154L78.783 66.6726ZM71.196 72.1463C68.1511 73.6097 65.3713 74.3119 62.843 74.3119V77.9816C65.814 77.9816 68.9602 77.1572 72.2679 75.5674L71.196 72.1463ZM62.843 74.3119C60.9566 74.3119 58.9622 73.7418 56.847 72.5412L55.6125 75.8771C58.0485 77.26 60.4629 77.9816 62.843 77.9816V74.3119ZM56.8699 72.5545C54.7029 71.2684 52.9399 69.8117 51.5541 68.2026L49.5276 70.8799C51.1759 72.7937 53.2054 74.449 55.5896 75.8638L56.8699 72.5545ZM51.5716 68.2234C50.104 66.4624 49.6954 65.3088 49.6742 64.7056L46.7141 64.865C46.7877 66.9627 47.9436 68.9797 49.51 70.8591L51.5716 68.2234ZM49.6742 64.702C49.5982 62.6317 50.1276 61.1042 51.2294 59.9157L49.2834 57.1484C47.4459 59.1306 46.6006 61.7719 46.7142 64.8686L49.6742 64.702ZM51.2494 59.8937C52.3845 58.6239 53.9668 57.9009 56.1586 57.9009V54.2312C53.4201 54.2312 51.0676 55.1522 49.2634 57.1704L51.2494 59.8937ZM56.1586 57.9009C57.2571 57.9009 58.3884 58.0838 59.5557 58.4587L60.2993 54.9064C58.9067 54.4592 57.5254 54.2312 56.1586 54.2312V57.9009ZM58.4699 57.0108C59.0399 60.8935 59.5507 63.7765 60.0059 65.5934L62.8358 64.5057C62.4377 62.917 61.9529 60.2221 61.3851 56.3543L58.4699 57.0108ZM61.7859 66.8278C64.7271 65.9016 67.8746 64.3107 71.2232 62.0868L69.823 58.8526C66.6294 60.9736 63.7086 62.4359 61.0558 63.2713L61.7859 66.8278ZM71.4179 59.0073C66.1725 54.084 62.3044 49.7591 59.7615 46.0306C57.1802 42.2457 56.1468 39.3384 56.1468 37.2183H53.1838C53.1838 40.6762 54.7934 44.4331 57.498 48.3987C60.2411 52.4207 64.3017 56.9324 69.6282 61.9321L71.4179 59.0073ZM56.1468 37.2183C56.1468 34.9421 56.8342 32.0213 58.3914 28.3911L55.7748 26.6694C54.1082 30.5547 53.1838 34.0927 53.1838 37.2183H56.1468ZM58.3958 28.3807C59.9167 24.7796 61.9242 21.7146 64.4234 19.1719L62.5427 16.3362C59.7324 19.1954 57.4732 22.6479 55.7703 26.6798L58.3958 28.3807ZM64.4355 19.1595C66.8736 16.6251 69.3436 15.4495 71.8742 15.4495V11.7798C68.5262 11.7798 65.4022 13.3637 62.5307 16.3486L64.4355 19.1595ZM71.8742 15.4495C73.6982 15.4495 75.5104 16.2028 77.3371 17.8334L79.0696 14.8565C76.8185 12.8467 74.4119 11.7798 71.8742 11.7798V15.4495ZM77.3371 17.8334C79.2141 19.5094 80.7348 21.556 81.9104 23.9825L84.4511 22.0945C83.0667 19.2366 81.2696 16.8208 79.0696 14.8565L77.3371 17.8334ZM81.9104 23.9825C83.0985 26.4348 83.6193 28.5752 83.6193 30.4367H86.5822C86.5822 27.7183 85.823 24.9266 84.4511 22.0945L81.9104 23.9825ZM83.6193 30.4367C83.6193 32.0762 83.1133 33.3247 82.0134 34.3356L83.7793 37.2827C85.6185 35.5926 86.5822 33.2595 86.5822 30.4367H83.6193ZM82.02 34.3295C80.9015 35.3455 79.4489 35.9119 77.563 35.9119V39.5816C79.9437 39.5816 82.0467 38.8563 83.7726 37.2888L82.02 34.3295ZM77.563 35.9119C76.1215 35.9119 74.66 35.5307 73.1689 34.7391L72.0017 38.1122C73.829 39.0821 75.6859 39.5816 77.563 39.5816V35.9119Z" fill="#FFBB37"/>
<path d="M39.6073 78.2102L13.0525 57.3032L6.66663 64.4439L33.2215 85.3508L39.6073 78.2102Z" fill="#333339"/>
<path d="M95.0876 26.1689L69.8727 6.31689L60 17.3566L85.2148 37.2086L95.0876 26.1689Z" fill="#333339"/>
</g>
<defs>
<clipPath id="clip0_267_743">
<rect width="100" height="100" fill="white"/>
</clipPath>
</defs>
</svg>
