<svg width="236" height="216" viewBox="0 0 236 216" fill="none" xmlns="http://www.w3.org/2000/svg">
<path d="M232.563 108C232.563 167.647 182.175 216 120.017 216C57.8602 216 7.47189 167.647 7.47189 108C7.47189 48.3532 57.8602 0 120.017 0C182.175 0 232.563 48.3532 232.563 108Z" fill="#FFBB37"/>
<path d="M232.563 108C232.563 167.647 182.175 216 120.017 216C57.8602 216 7.47189 167.647 7.47189 108C7.47189 48.3532 57.8602 0 120.017 0C182.175 0 232.563 48.3532 232.563 108Z" stroke="black"/>
<path d="M51.4307 91.6625C51.5425 92.6369 51.6576 93.6001 51.776 94.5521C51.8944 95.5042 51.9992 96.4691 52.0905 97.447L45.6231 98.9134L45.9718 100.851L51.6378 99.872L52.1877 104.692L46.8265 105.777L48.4954 114.876L40.7322 116.376L37.2348 94.1155L51.4307 91.6625ZM60.6243 90.6131L62.6994 111.851L56.2628 113.312L52.5107 92.459L60.6243 90.6131ZM82.5699 86.4089L85.2134 107.453L77.2783 109.585L70.9583 99.1657L72.3285 110.663L65.3999 111.86L62.0305 89.9579L69.6625 88.2586L76.9821 98.4103L75.3468 87.9106L82.5699 86.4089ZM106.701 103.613L99.2409 105.917L97.6918 102.601L94.1813 103.208L94.0368 106.816L86.0461 107.404L88.4883 85.8619L96.9715 83.9521L106.701 103.613ZM96.2908 97.9914L94.1577 92.8421L93.9812 98.3905L96.2908 97.9914ZM119.219 93.776L119.8 100.716L107.019 103.971C106.437 100.382 105.863 96.8131 105.299 93.2637C104.744 89.7126 104.202 86.1383 103.671 82.5408L111.677 81.1574C111.845 83.4434 112.023 85.7276 112.212 88.01C112.398 90.2822 112.65 92.5643 112.967 94.8562C113.454 94.7933 113.933 94.7211 114.405 94.6395C114.877 94.5579 115.354 94.4754 115.837 94.3921C116.412 94.2928 116.975 94.1901 117.528 94.0841C118.08 93.978 118.644 93.8754 119.219 93.776ZM141.972 90.4469C142.225 91.8514 142.2 93.1243 141.898 94.2653C141.603 95.3944 141.093 96.3811 140.366 97.2255C139.65 98.068 138.754 98.762 137.677 99.3075C136.611 99.8512 135.426 100.236 134.122 100.461C133.619 100.548 133.053 100.577 132.423 100.548C131.804 100.518 131.169 100.458 130.518 100.37C129.865 100.271 129.231 100.159 128.616 100.033C128.009 99.8946 127.466 99.7611 126.988 99.6323L126.525 93.1795C127.492 93.5516 128.529 93.7847 129.636 93.8788C130.751 93.9609 131.822 93.9133 132.848 93.7359C133.043 93.7022 133.279 93.6563 133.554 93.5982C133.827 93.5298 134.081 93.4384 134.314 93.3241C134.556 93.1977 134.75 93.0426 134.897 92.8586C135.044 92.6747 135.092 92.4392 135.04 92.1522C135.005 91.9574 134.914 91.804 134.767 91.692C134.618 91.5697 134.438 91.4845 134.229 91.4361C134.017 91.3776 133.784 91.3491 133.531 91.3506C133.275 91.3419 133.027 91.3477 132.788 91.368C132.548 91.3883 132.325 91.4162 132.12 91.4517C131.915 91.4871 131.75 91.5155 131.627 91.5368C130.744 91.6893 129.911 91.6748 129.127 91.4931C128.353 91.3097 127.655 90.9916 127.034 90.5387C126.421 90.0738 125.904 89.4919 125.482 88.7932C125.058 88.0842 124.767 87.2889 124.608 86.4072C124.39 85.1975 124.437 84.0742 124.748 83.0374C125.067 81.9886 125.572 81.0609 126.263 80.2544C126.963 79.4359 127.809 78.7559 128.801 78.2144C129.794 77.6729 130.855 77.3046 131.984 77.1095C132.487 77.0226 133.009 76.9535 133.55 76.9023C134.09 76.8408 134.629 76.811 135.169 76.8128C135.72 76.8128 136.259 76.8412 136.788 76.8978C137.317 76.9544 137.826 77.0513 138.317 77.1886L138.855 83.5332C138.115 83.418 137.346 83.35 136.548 83.3292C135.759 83.2965 135 83.343 134.271 83.469C134.138 83.492 133.964 83.5273 133.751 83.5748C133.545 83.6103 133.327 83.6638 133.097 83.7353C132.875 83.7948 132.65 83.8706 132.423 83.9627C132.197 84.0547 131.999 84.1629 131.831 84.2871C131.661 84.401 131.532 84.5395 131.445 84.7025C131.358 84.8656 131.337 85.0436 131.383 85.2366C131.433 85.4604 131.549 85.6307 131.729 85.7476C131.917 85.8525 132.141 85.9247 132.403 85.9642C132.672 85.9916 132.958 85.995 133.262 85.9743C133.575 85.9518 133.882 85.92 134.181 85.8788C134.479 85.8274 134.756 85.7795 135.013 85.7352C135.267 85.6806 135.479 85.6493 135.647 85.6415C136.477 85.5508 137.247 85.5974 137.958 85.7812C138.668 85.965 139.294 86.2639 139.834 86.678C140.384 87.0903 140.839 87.6195 141.199 88.2656C141.567 88.8996 141.825 89.6268 141.972 90.4469ZM163.361 93.823L155.901 96.1268L154.352 92.811L150.842 93.4176L150.697 97.026L142.706 97.6139L145.149 76.0715L153.632 74.1618L163.361 93.823ZM152.951 88.2011L150.818 83.0517L150.642 88.6001L152.951 88.2011ZM175.879 83.9857L176.461 90.9253L163.679 94.1803C163.097 90.5917 162.524 87.0227 161.959 83.4733C161.405 79.9222 160.862 76.3479 160.331 72.7504L168.338 71.367C168.506 73.653 168.684 75.9372 168.872 78.2197C169.059 80.4918 169.311 82.7739 169.628 85.0658C170.114 85.0029 170.593 84.9307 171.065 84.8491C171.537 84.7676 172.015 84.6851 172.497 84.6017C173.072 84.5024 173.636 84.3997 174.188 84.2937C174.741 84.1877 175.304 84.085 175.879 83.9857ZM188.771 67.9316C188.882 68.9059 188.997 69.8691 189.116 70.8211C189.234 71.7732 189.339 72.7382 189.43 73.716L182.963 75.1824L183.158 77.1466L187.746 76.3538L188.265 81.1795L183.674 82.1314L183.924 84.4032L187.742 83.7435L190.452 83.2752C190.593 84.4136 190.728 85.5477 190.858 86.6776C190.995 87.7955 191.139 88.9176 191.289 90.0439L178.072 92.6447L174.575 70.3845L188.771 67.9316ZM52.3238 135.221C52.6374 136.963 52.7019 138.587 52.5173 140.091C52.329 141.574 51.8859 142.906 51.1881 144.087C50.5114 145.265 49.5704 146.24 48.3653 147.011C47.1812 147.778 45.7377 148.309 44.035 148.603C42.2691 148.908 40.6854 148.901 39.2838 148.58C37.8785 148.238 36.6542 147.638 35.611 146.779C34.5639 145.899 33.7018 144.782 33.0244 143.426C32.3471 142.071 31.8516 140.523 31.5381 138.78C31.1225 136.47 31.1382 134.389 31.5852 132.537C32.0322 130.684 32.9361 129.143 34.2969 127.912C35.6787 126.677 37.5468 125.856 39.9013 125.449C42.1506 125.061 44.1295 125.217 45.8379 125.917C47.5425 126.597 48.9405 127.741 50.0318 129.349C51.1405 130.933 51.9044 132.89 52.3238 135.221ZM34.5393 138.294C34.8794 140.183 35.4349 141.765 36.206 143.039C36.9771 144.313 37.9754 145.223 39.2007 145.769C40.4471 146.311 41.9112 146.437 43.5929 146.147C45.2957 145.852 46.617 145.245 47.5569 144.325C48.5178 143.401 49.1383 142.212 49.4182 140.756C49.6982 139.301 49.6682 137.628 49.3282 135.738C48.8182 132.904 47.831 130.79 46.3666 129.398C44.8985 127.985 42.8926 127.498 40.349 127.938C38.6462 128.232 37.3039 128.843 36.3219 129.77C35.3573 130.673 34.7349 131.852 34.4549 133.307C34.1712 134.742 34.1993 136.404 34.5393 138.294ZM65.3365 123.652C64.1382 123.859 63.0934 124.256 62.2019 124.843C61.3067 125.41 60.5945 126.15 60.0654 127.064C59.5325 127.957 59.1893 129.001 59.036 130.197C58.8788 131.371 58.9268 132.662 59.18 134.069C59.5124 135.916 60.0852 137.473 60.8984 138.74C61.7326 140.003 62.7834 140.904 64.0508 141.443C65.3392 141.978 66.8453 142.096 68.5691 141.799C69.5571 141.628 70.4775 141.382 71.3302 141.062C72.1829 140.741 73.007 140.382 73.8025 139.985L74.2445 142.442C73.4603 142.902 72.6295 143.283 71.752 143.587C70.8955 143.886 69.8471 144.143 68.6069 144.357C66.3155 144.753 64.3175 144.611 62.6129 143.932C60.9083 143.252 59.5103 142.108 58.4189 140.5C57.3486 138.888 56.6018 136.906 56.1787 134.555C55.8727 132.854 55.8243 131.26 56.0337 129.774C56.2641 128.283 56.7387 126.946 57.4575 125.761C58.1973 124.572 59.1908 123.589 60.438 122.81C61.6814 122.011 63.1755 121.46 64.9203 121.159C66.0765 120.959 67.2114 120.882 68.3251 120.928C69.4388 120.974 70.4538 121.134 71.3703 121.408L70.6658 123.998C69.9154 123.803 69.0866 123.654 68.1793 123.551C67.2931 123.444 66.3455 123.478 65.3365 123.652ZM91.8477 140.017L79.2661 142.191L75.2199 119.704L87.8015 117.53L88.2492 120.018L78.5056 121.702L79.7693 128.725L88.9453 127.139L89.3874 129.596L80.2113 131.181L81.6564 139.212L91.4 137.529L91.8477 140.017ZM114.005 136.188L111.167 136.679L109.28 126.191L97.7386 128.185L99.6257 138.673L96.7877 139.163L92.7415 116.676L95.5795 116.186L97.2909 125.697L108.832 123.703L107.12 114.192L109.958 113.702L114.005 136.188ZM120.16 135.125L116.114 112.638L118.952 112.148L120.663 121.659L124.889 120.929C126.991 120.565 128.713 120.56 130.055 120.913C131.398 121.265 132.429 121.877 133.149 122.749C133.87 123.62 134.338 124.654 134.553 125.851C134.791 127.174 134.694 128.381 134.262 129.473C133.851 130.562 133.095 131.483 131.995 132.235C130.895 132.988 129.42 133.525 127.57 133.844L120.16 135.125ZM126.85 131.468C128.679 131.152 129.996 130.578 130.8 129.747C131.6 128.894 131.874 127.764 131.62 126.358C131.447 125.392 131.077 124.665 130.513 124.178C129.966 123.667 129.228 123.361 128.3 123.262C127.393 123.159 126.287 123.22 124.984 123.445L121.105 124.115L122.562 132.209L126.85 131.468ZM156.405 113.925C156.553 114.746 156.545 115.556 156.382 116.355C156.217 117.145 155.947 117.91 155.573 118.652C155.207 119.381 154.76 120.077 154.234 120.738C153.716 121.388 153.178 121.988 152.621 122.539L157.486 121.698L158.268 128.16L143.768 130.158L142.761 124.56C143.271 124.282 143.801 123.963 144.351 123.603C144.908 123.232 145.444 122.828 145.958 122.39C146.482 121.951 146.963 121.477 147.401 120.968C147.849 120.457 148.223 119.922 148.525 119.362C148.835 118.791 149.05 118.193 149.171 117.57C149.302 116.945 149.306 116.294 149.184 115.617C149.114 115.228 148.981 114.897 148.784 114.624C148.597 114.35 148.362 114.137 148.081 113.984C147.798 113.822 147.484 113.723 147.139 113.687C146.802 113.64 146.449 113.648 146.079 113.712C145.771 113.765 145.465 113.855 145.159 113.982C144.852 114.098 144.556 114.245 144.27 114.421C143.984 114.597 143.719 114.801 143.475 115.034C143.24 115.254 143.035 115.496 142.86 115.759L140.42 109.965C140.732 109.52 141.111 109.126 141.557 108.785C142.004 108.444 142.485 108.149 143.002 107.901C143.516 107.643 144.049 107.429 144.601 107.26C145.153 107.091 145.7 106.959 146.244 106.865C147.456 106.656 148.624 106.681 149.751 106.941C150.875 107.191 151.891 107.634 152.8 108.269C153.716 108.893 154.489 109.69 155.119 110.659C155.759 111.627 156.187 112.716 156.405 113.925ZM177.093 113.934C177.255 114.837 177.314 115.751 177.269 116.679C177.234 117.604 177.101 118.51 176.869 119.396C176.637 120.282 176.307 121.126 175.88 121.929C175.463 122.731 174.948 123.454 174.334 124.099C173.719 124.744 173.013 125.289 172.215 125.734C171.426 126.177 170.545 126.482 169.57 126.651C168.584 126.821 167.639 126.831 166.733 126.681C165.828 126.531 164.974 126.256 164.172 125.855C163.38 125.453 162.643 124.946 161.961 124.334C161.28 123.723 160.675 123.04 160.148 122.285C159.62 121.531 159.174 120.725 158.808 119.869C158.451 119 158.192 118.12 158.031 117.228C157.871 116.336 157.807 115.422 157.84 114.486C157.883 113.549 158.02 112.637 158.252 111.751C158.485 110.865 158.814 110.021 159.241 109.218C159.666 108.404 160.181 107.676 160.785 107.032C161.399 106.387 162.105 105.842 162.904 105.398C163.712 104.951 164.604 104.644 165.579 104.476C166.555 104.307 167.49 104.299 168.385 104.451C169.29 104.601 170.144 104.876 170.947 105.277C171.749 105.677 172.487 106.189 173.16 106.813C173.841 107.424 174.446 108.107 174.973 108.862C175.501 109.616 175.943 110.428 176.3 111.296C176.668 112.163 176.932 113.042 177.093 113.934ZM170.678 115.518C170.597 115.067 170.445 114.576 170.222 114.043C169.999 113.511 169.716 113.026 169.373 112.589C169.03 112.151 168.628 111.803 168.169 111.544C167.71 111.285 167.203 111.204 166.649 111.299C166.084 111.397 165.631 111.644 165.29 112.041C164.949 112.439 164.688 112.901 164.508 113.429C164.338 113.955 164.241 114.506 164.217 115.081C164.194 115.656 164.223 116.169 164.304 116.62C164.385 117.071 164.537 117.563 164.76 118.095C164.983 118.627 165.266 119.112 165.609 119.55C165.962 119.985 166.369 120.333 166.828 120.592C167.288 120.851 167.8 120.931 168.364 120.834C168.918 120.738 169.366 120.491 169.707 120.094C170.049 119.697 170.304 119.235 170.474 118.709C170.644 118.183 170.741 117.632 170.765 117.057C170.788 116.483 170.759 115.97 170.678 115.518ZM192.434 107.7C192.581 108.52 192.574 109.33 192.411 110.13C192.246 110.92 191.976 111.685 191.601 112.426C191.235 113.156 190.789 113.851 190.262 114.513C189.744 115.163 189.207 115.763 188.649 116.314L193.515 115.473L194.296 121.934L179.796 123.932L178.789 118.335C179.3 118.056 179.83 117.737 180.379 117.378C180.937 117.007 181.473 116.602 181.987 116.165C182.511 115.725 182.992 115.251 183.429 114.742C183.877 114.231 184.252 113.696 184.553 113.137C184.863 112.565 185.079 111.968 185.199 111.344C185.33 110.719 185.335 110.068 185.213 109.392C185.143 109.002 185.009 108.671 184.812 108.399C184.625 108.124 184.391 107.911 184.11 107.759C183.826 107.596 183.512 107.497 183.167 107.462C182.831 107.414 182.477 107.423 182.108 107.486C181.8 107.54 181.493 107.63 181.188 107.756C180.881 107.873 180.584 108.019 180.299 108.195C180.013 108.372 179.748 108.576 179.504 108.808C179.269 109.029 179.063 109.27 178.888 109.533L176.449 103.739C176.76 103.294 177.139 102.901 177.586 102.56C178.032 102.218 178.514 101.924 179.03 101.676C179.545 101.418 180.078 101.204 180.63 101.035C181.181 100.865 181.729 100.734 182.273 100.64C183.484 100.43 184.653 100.456 185.779 100.716C186.904 100.965 187.92 101.408 188.828 102.044C189.745 102.668 190.518 103.465 191.148 104.434C191.787 105.402 192.216 106.49 192.434 107.7ZM210.305 111.557C210.55 112.921 210.543 114.143 210.282 115.224C210.03 116.293 209.574 117.228 208.914 118.029C208.252 118.82 207.406 119.473 206.377 119.989C205.356 120.494 204.199 120.857 202.906 121.081C202.321 121.182 201.71 121.229 201.074 121.223C200.438 121.217 199.8 121.168 199.159 121.078C198.518 120.988 197.887 120.859 197.264 120.692C196.651 120.523 196.071 120.327 195.523 120.105L194.996 113.822C195.434 114.021 195.916 114.202 196.443 114.365C196.968 114.517 197.504 114.646 198.053 114.752C198.609 114.847 199.16 114.905 199.703 114.927C200.257 114.948 200.781 114.915 201.273 114.83C201.561 114.78 201.85 114.709 202.14 114.617C202.439 114.513 202.7 114.377 202.924 114.212C203.149 114.046 203.317 113.837 203.431 113.585C203.554 113.331 203.584 113.025 203.519 112.666C203.479 112.441 203.338 112.248 203.098 112.089C202.858 111.93 202.582 111.808 202.27 111.724C201.957 111.631 201.64 111.574 201.319 111.556C200.997 111.527 200.733 111.53 200.527 111.566C200.384 111.591 200.211 111.631 200.009 111.687C199.816 111.731 199.62 111.786 199.42 111.852C199.22 111.919 199.028 111.999 198.844 112.094C198.669 112.178 198.537 112.269 198.449 112.369L197.75 107.955C197.928 107.945 198.095 107.932 198.251 107.916C198.407 107.899 198.572 107.876 198.747 107.846C199.106 107.784 199.49 107.686 199.9 107.552C200.308 107.407 200.677 107.222 201.007 106.996C201.335 106.759 201.59 106.472 201.773 106.134C201.965 105.794 202.019 105.388 201.935 104.917C201.874 104.578 201.732 104.323 201.511 104.15C201.287 103.966 201.027 103.842 200.729 103.777C200.442 103.711 200.136 103.684 199.81 103.698C199.485 103.712 199.193 103.741 198.937 103.786C198.105 103.929 197.31 104.215 196.551 104.642C195.802 105.067 195.169 105.61 194.653 106.27L192.352 100.896C193.158 99.9639 194.126 99.1942 195.255 98.5869C196.392 97.9675 197.572 97.5523 198.793 97.3412C199.912 97.1479 201.009 97.1275 202.084 97.2799C203.168 97.4204 204.157 97.741 205.052 98.2419C205.944 98.7325 206.705 99.3992 207.332 100.242C207.96 101.085 208.383 102.111 208.601 103.321C208.664 103.67 208.676 104.032 208.638 104.409C208.6 104.785 208.524 105.158 208.41 105.526C208.297 105.895 208.149 106.248 207.966 106.586C207.781 106.914 207.575 107.209 207.347 107.47C207.813 107.59 208.214 107.79 208.551 108.071C208.887 108.351 209.173 108.677 209.409 109.048C209.645 109.42 209.835 109.825 209.977 110.266C210.118 110.696 210.228 111.127 210.305 111.557Z" fill="#FF3000"/>
</svg>
